<?xml version="1.0" encoding="UTF-8" standalone="no"?>
<!-- Created with Inkscape (http://www.inkscape.org/) -->

<svg
   width="210mm"
   height="210mm"
   viewBox="0 0 210 210"
   version="1.1"
   id="svg1330"
   inkscape:version="1.1 (c68e22c387, 2021-05-23)"
   sodipodi:docname="eye.svg"
   xmlns:inkscape="http://www.inkscape.org/namespaces/inkscape"
   xmlns:sodipodi="http://sodipodi.sourceforge.net/DTD/sodipodi-0.dtd"
   xmlns="http://www.w3.org/2000/svg"
   xmlns:svg="http://www.w3.org/2000/svg">
  <sodipodi:namedview
     id="namedview1332"
     pagecolor="#ffffff"
     bordercolor="#666666"
     borderopacity="1.0"
     inkscape:pageshadow="2"
     inkscape:pageopacity="0.0"
     inkscape:pagecheckerboard="true"
     inkscape:document-units="mm"
     showgrid="false"
     height="210mm"
     inkscape:zoom="0.79909512"
     inkscape:cx="356.0277"
     inkscape:cy="561.25984"
     inkscape:window-width="1600"
     inkscape:window-height="1147"
     inkscape:window-x="-8"
     inkscape:window-y="-8"
     inkscape:window-maximized="1"
     inkscape:current-layer="layer1" />
  <defs
     id="defs1327" />
  <g
     inkscape:label="Ebene 1"
     inkscape:groupmode="layer"
     id="layer1">
    <path
       style="fill:#fafafa;fill-opacity:1;stroke:#000000;stroke-width:4.25;stroke-miterlimit:4;stroke-dasharray:none;stroke-opacity:1"
       d="M 94.757083,153.62683 C 76.507926,151.14833 58.257558,143.0251 39.684119,129.11386 30.759531,122.42946 17.713152,110.36433 16.462601,107.63889 14.82811,104.07666 15.697623,102.38541 22.645122,95.61345 35.830344,82.761386 49.193086,73.171991 63.734972,66.126462 78.393628,59.024365 91.076613,55.877259 105.03969,55.877259 c 13.85542,0 26.60487,3.141758 41.03041,10.110837 14.70025,7.101781 28.10951,16.705602 41.36416,29.625354 5.71416,5.56977 6.82227,7.09839 6.82227,9.41121 0,2.31281 -1.10811,3.84144 -6.82227,9.4112 -22.93053,22.35114 -48.23555,36.054 -72.39123,39.20039 -5.04576,0.65725 -15.412753,0.65242 -20.285947,-0.009 z M 79.711915,134.01065 c -7.423149,-5.53327 -12.396514,-12.82305 -14.47845,-21.22199 -1.06792,-4.30819 -1.06792,-11.2198 0,-15.528007 2.081936,-8.398936 7.055301,-15.688711 14.47845,-21.221991 1.502351,-1.119873 2.555713,-2.036127 2.340802,-2.036127 -0.214909,0 -2.22837,0.725639 -4.47436,1.612528 -13.30893,5.255348 -26.989845,14.001737 -40.057292,25.609147 -2.165238,1.92332 -3.936799,3.63352 -3.936799,3.80045 0,0.16692 1.771561,1.87712 3.936799,3.80044 13.003386,11.5505 26.379321,20.12451 39.807866,25.51694 2.300517,0.9238 4.392407,1.68528 4.648643,1.69218 0.256239,0.007 -0.763308,-0.90371 -2.265659,-2.02357 z m 52.789125,0.4236 c 13.30893,-5.25534 26.98984,-14.00174 40.05728,-25.60915 2.16525,-1.92332 3.9368,-3.63352 3.9368,-3.80044 0,-0.16693 -1.77155,-1.87713 -3.9368,-3.80045 -13.06744,-11.60741 -26.74835,-20.353799 -40.05728,-25.609147 -2.24599,-0.886889 -4.25945,-1.612528 -4.47436,-1.612528 -0.21491,0 0.83844,0.916254 2.3408,2.036127 7.42315,5.53328 12.3965,12.823055 14.47845,21.221991 1.06792,4.308207 1.06792,11.219817 0,15.528007 -2.08195,8.39894 -7.0553,15.68872 -14.47845,21.22199 -1.50236,1.11986 -2.55571,2.03612 -2.3408,2.03612 0.21491,0 2.22837,-0.72563 4.47436,-1.61252 z M 92.590612,105.74088 c 2.579991,-0.99209 5.710316,-3.86088 7.140246,-6.543735 3.819382,-7.165873 0.918802,-15.881659 -6.446369,-19.370368 -2.212935,-1.048218 -2.602966,-1.118634 -6.195792,-1.118634 -3.56679,0 -3.978889,0.07298 -5.908918,1.045689 -5.659468,2.852456 -8.927787,9.000003 -7.943327,14.941019 0.885152,5.341719 4.599837,9.736519 9.613073,11.373099 2.804553,0.91555 6.864012,0.77925 9.741087,-0.32707 z"
       id="path1426"
       inkscape:export-filename="E:\P\Projects\19_DoRIAH\ImageSelection\QGisPlugIn\image_selection\resources\eye.png"
       inkscape:export-xdpi="3.8699999"
       inkscape:export-ydpi="3.8699999" />
  </g>
</svg>
